<svg id="Layer_1" data-name="Layer 1" xmlns="http://www.w3.org/2000/svg" viewBox="0 0 150 150"><defs><style>.cls-1{fill:#f7f7f5;}.cls-2{fill:#3c3b5c;}.cls-3{fill:#eb5160;}.cls-4{fill:#e5e5e5;}.cls-5{fill:#d84e62;}</style></defs><title>e2e_shower_filter</title><path class="cls-1" d="M130.58,65.37,100.17,35a4,4,0,0,0-5.64,0l-1.76,1.76-1.87,1.87L73.55,56,80,62.39,95.87,46.51a2.09,2.09,0,0,1,3,0l25.3,25.3Z"/><path class="cls-2" d="M124.13,73.63a1.82,1.82,0,0,1-1.29-.53L97.54,47.8a.27.27,0,0,0-.38,0L81.28,63.68a1.88,1.88,0,0,1-2.58,0l-6.44-6.44a1.82,1.82,0,0,1,0-2.58l21-21a5.81,5.81,0,0,1,8.22,0l30.4,30.4a1.82,1.82,0,0,1,0,2.58l-6.44,6.44A1.82,1.82,0,0,1,124.13,73.63ZM97.35,44.07a3.91,3.91,0,0,1,2.77,1.15l24,24L128,65.37,98.88,36.25a2.16,2.16,0,0,0-3.06,0L76.13,56,80,59.81l14.6-14.59A3.9,3.9,0,0,1,97.35,44.07Z"/><rect class="cls-3" x="70.22" y="52.02" width="18.74" height="8.26" transform="translate(63.02 -39.83) rotate(45)"/><path class="cls-2" d="M83.29,67.52A1.82,1.82,0,0,1,82,67L68.75,53.74a1.82,1.82,0,0,1,0-2.58l5.84-5.84a1.82,1.82,0,0,1,2.58,0L90.42,58.57a1.82,1.82,0,0,1,0,2.58L84.58,67A1.82,1.82,0,0,1,83.29,67.52ZM72.62,52.45,83.29,63.11l3.26-3.26L75.88,49.19Z"/><path class="cls-3" d="M26.42,74a2.56,2.56,0,0,0,0,3.63l31.73,31.73a2.56,2.56,0,0,0,3.63,0l3.89-3.89L30.31,70.08Z"/><path class="cls-2" d="M60,111.89a4.37,4.37,0,0,1-3.1-1.28L25.13,78.88a4.39,4.39,0,0,1,0-6.21L29,68.79a1.88,1.88,0,0,1,2.58,0L67,104.14a1.82,1.82,0,0,1,0,2.58l-3.88,3.89A4.37,4.37,0,0,1,60,111.89ZM30.31,72.66l-2.6,2.59a.74.74,0,0,0,0,1L59.44,108a.74.74,0,0,0,1,0l2.59-2.6Z"/><path class="cls-1" d="M82.86,65.26,70.48,52.88a16.25,16.25,0,0,0-23,0L30.31,70.08l35.35,35.35L82.86,88.24A16.25,16.25,0,0,0,82.86,65.26Z"/><path class="cls-2" d="M65.66,107.25a1.82,1.82,0,0,1-1.29-.53L29,71.37a1.82,1.82,0,0,1,0-2.58L46.21,51.59a18.07,18.07,0,0,1,25.56,0L84.15,64a18.07,18.07,0,0,1,0,25.56L67,106.72A1.82,1.82,0,0,1,65.66,107.25ZM32.89,70.08l32.77,32.77,15.9-15.9a14.42,14.42,0,0,0,0-20.4h0L69.19,54.17a14.42,14.42,0,0,0-20.4,0Z"/><line class="cls-1" x1="23.45" y1="83.69" x2="19.42" y2="87.72"/><path class="cls-2" d="M19.42,89.54a1.82,1.82,0,0,1-1.29-3.11l4-4A1.82,1.82,0,0,1,24.74,85l-4,4A1.82,1.82,0,0,1,19.42,89.54Z"/><line class="cls-1" x1="29.15" y1="89.39" x2="25.12" y2="93.42"/><path class="cls-2" d="M25.12,95.24a1.82,1.82,0,0,1-1.29-3.11l4-4a1.82,1.82,0,0,1,2.58,2.58l-4,4A1.82,1.82,0,0,1,25.12,95.24Z"/><line class="cls-1" x1="34.85" y1="95.08" x2="30.82" y2="99.11"/><path class="cls-2" d="M30.82,100.94a1.82,1.82,0,0,1-1.29-3.11l4-4a1.82,1.82,0,1,1,2.58,2.58l-4,4A1.82,1.82,0,0,1,30.82,100.94Z"/><line class="cls-1" x1="40.55" y1="100.78" x2="36.51" y2="104.81"/><path class="cls-2" d="M36.51,106.63a1.82,1.82,0,0,1-1.29-3.11l4-4a1.82,1.82,0,0,1,2.58,2.58l-4,4A1.82,1.82,0,0,1,36.51,106.63Z"/><line class="cls-1" x1="46.24" y1="106.48" x2="42.21" y2="110.51"/><path class="cls-2" d="M42.21,112.33a1.82,1.82,0,0,1-1.29-3.11l4-4a1.82,1.82,0,1,1,2.58,2.58l-4,4A1.82,1.82,0,0,1,42.21,112.33Z"/><line class="cls-1" x1="51.94" y1="112.17" x2="47.91" y2="116.2"/><path class="cls-2" d="M47.91,118a1.82,1.82,0,0,1-1.29-3.11l4-4a1.82,1.82,0,1,1,2.58,2.58l-4,4A1.82,1.82,0,0,1,47.91,118Z"/><path class="cls-4" d="M99.44,36.86a2.41,2.41,0,0,0-4-.21L82,50.15l2.17,2.07Z"/><polygon class="cls-5" points="75.88 49.19 72.63 52.44 74.51 54.28 77.76 50.99 75.88 49.19"/><path class="cls-4" d="M67.87,53s-9.17-7.75-19.34,1.28l-15.7,15.8,8.56,8.67Z"/></svg>